<svg height="512" viewBox="0 0 512 512" width="512" xmlns="http://www.w3.org/2000/svg"><g><path d="m272 104h-32a88.1 88.1 0 0 0 -88 88v128a88.127 88.127 0 0 0 76.57 87.26 7.868 7.868 0 0 0 3.36.74h40.07a88.1 88.1 0 0 0 88-88v-128a88.1 88.1 0 0 0 -88-88zm72 216a72.083 72.083 0 0 1 -72 72h-32a72.083 72.083 0 0 1 -72-72v-72h176zm0-88h-176v-40a72.083 72.083 0 0 1 72-72h32a72.083 72.083 0 0 1 72 72z"/><path d="m240 216h32a8 8 0 0 0 8-8v-64a8 8 0 0 0 -8-8h-32a8 8 0 0 0 -8 8v64a8 8 0 0 0 8 8zm8-64h16v48h-16z"/><path d="m208 88h96a8 8 0 0 0 6.4-12.8l-48-64a8 8 0 0 0 -12.8 0l-48 64a8 8 0 0 0 6.4 12.8zm48-58.667 32 42.667h-64z"/><path d="m304 424h-96a8 8 0 0 0 -6.4 12.8l48 64a8 8 0 0 0 12.8 0l48-64a8 8 0 0 0 -6.4-12.8zm-48 58.667-32-42.667h64z"/></g></svg>